<?xml version="1.0" encoding="UTF-8"?><svg id="Layer_1" xmlns="http://www.w3.org/2000/svg" viewBox="0 0 892.31 230"><defs><style>.cls-1{fill:#FFFFFF;}</style></defs><path id="svg_1" class="cls-1" d="M0,115.69c0-37.59,26.82-60.69,69.7-60.69h43.96V0h56V173H69.49C26.82,173,0,150.79,0,115.69Zm58.66-1.55c0,14.37,8.7,21.86,25.41,21.86h29.59v-44h-29.31c-16.71,0-25.69,7.56-25.69,22.14Zm469.66,.17c0,37.59-26.82,60.69-69.7,60.69h-43.96v55h-56V57h100.17c42.67,0,69.49,22.21,69.49,57.31h0Zm-58.66,1.55c0-14.37-8.71-21.86-25.44-21.86h-29.56v44h29.35c16.73,0,25.65-7.56,25.65-22.14Zm422.66-1.55c0,37.59-26.82,60.69-69.7,60.69h-43.96v55h-56V57h100.17c42.67,0,69.49,22.21,69.49,57.31h0Zm-58.66,1.55c0-14.37-8.71-21.86-25.44-21.86h-29.56v44h29.35c16.73,0,25.65-7.56,25.65-22.14Zm-288.4-.65c0-42.03,33.63-64.49,79.93-64.49s79.93,22.47,79.93,64.49-33.63,65.05-79.93,65.05c-46.3-.07-79.93-23.02-79.93-65.05h0Zm105.42-.65c0-20.49-10.27-30.77-25.84-30.77s-25.84,10.28-25.84,30.77,10.27,31.25,25.84,31.25c15.64-.07,25.84-11.04,25.84-31.25Zm-310.02,3.21c0-42.03-27.03-67.47-75.86-67.47s-77.1,25.44-77.1,65.25,29.92,64.29,79.78,64.29c31.37,0,56.68-11.75,70.02-30.83l-39.75-14.52c-6.88,7.53-17.26,11.68-28.2,11.68-16.44,0-27.86-6.64-30.81-17.9-.21-.76-.34-1.45-.48-2.28h102.41v-8.23h0s0,0,0,0Zm-102.03-17.77c1.31-13.65,10.76-22.05,27.18-22.05s25.87,8.87,25.87,22.05h-53.06Z"/></svg>