<?xml version="1.0" encoding="UTF-8"?><svg id="Layer_1" xmlns="http://www.w3.org/2000/svg" viewBox="0 0 623.69 245.99"><path d="M60.5,51.05l20.59-17.65,14.28,26.68-28.36,7.14,28.36,7.56-14.28,26.68-20.8-17.02,6.51,24.37H31.93l6.93-24.37-21.01,17.02L3.36,74.78l28.15-7.56L3.36,60.08l14.5-26.68,20.59,17.65-6.51-24.16h34.87l-6.3,24.16Z"/><path d="M102.51,70.16h57.14v15.76c2.52-2.24,5.49-4.44,8.93-6.62,3.43-2.17,9.49-4.59,18.17-7.25,8.68-2.66,17.99-3.99,27.94-3.99h4.41c12.46,0,23.21,1.51,32.25,4.52,9.03,3.01,16,7.21,20.9,12.6,4.9,5.39,8.44,11.21,10.61,17.44,2.17,6.23,3.26,13.13,3.26,20.69v4.41c0,7.42-1.16,14.39-3.47,20.9-2.31,6.51-5.99,12.6-11.03,18.28-5.04,5.67-12.18,10.16-21.43,13.44-9.24,3.29-20.17,4.94-32.77,4.94h-3.99c-9.66,0-18.73-1.16-27.2-3.47-8.48-2.31-14.49-4.52-18.07-6.62s-6.41-4.06-8.51-5.88v53.36h-57.14V70.16Zm57.14,55.88v.84c0,7.14,3.01,13.41,9.03,18.8,6.02,5.39,14.7,8.09,26.05,8.09h1.05c11.48,0,19.75-2.66,24.79-7.98,5.04-5.32,7.56-11.62,7.56-18.91v-.84c0-7.56-2.49-13.9-7.46-19.01-4.97-5.11-13.27-7.67-24.89-7.67h-1.05c-11.63,0-20.38,2.59-26.26,7.77-5.88,5.18-8.82,11.49-8.82,18.91Z"/><path d="M395.97,168.05c-11.48,11.49-29.13,17.23-52.94,17.23h-2.31c-17.65,0-30.78-3.5-39.39-10.5-8.61-7-12.92-15.61-12.92-25.84v-2.52c0-9.8,3.53-17.4,10.61-22.79,7.07-5.39,18.8-8.72,35.19-9.98l54.41-4.83c4.2-.56,6.3-2.38,6.3-5.46,0-1.68-.46-3.08-1.37-4.2-.91-1.12-3.26-2.13-7.04-3.05-3.78-.91-9.17-1.37-16.18-1.37h-.84c-5.6,0-10.26,.39-13.97,1.16-3.71,.77-6.3,1.93-7.77,3.47-1.47,1.54-2.38,2.7-2.73,3.47-.35,.77-.67,1.93-.95,3.47h-52.94v-1.26c0-3.78,.32-7.07,.95-9.87,.63-2.8,2.34-6.09,5.15-9.87,2.8-3.78,6.62-6.86,11.45-9.24,4.83-2.38,11.97-4.44,21.43-6.2,9.45-1.75,20.62-2.63,33.51-2.63h11.76c13.44,0,25.07,.81,34.87,2.42,9.8,1.61,17.23,3.57,22.27,5.88,5.04,2.31,9.03,5.25,11.97,8.82,2.94,3.57,4.73,6.72,5.36,9.45s.95,5.99,.95,9.77v41.8c0,3.22,1.61,4.83,4.83,4.83h6.09v32.98h-47.48c-10.5,0-16.6-5.04-18.28-15.12Zm-1.05-33.4v-4.83l-37.81,6.72c-5.04,.84-8.61,1.96-10.71,3.36-2.1,1.4-3.15,3.5-3.15,6.3v.21c0,3.22,1.37,5.95,4.1,8.19,2.73,2.24,7.32,3.36,13.76,3.36,10.08,0,18.24-2.34,24.47-7.04,6.23-4.69,9.35-10.12,9.35-16.28Z"/><path d="M472.65,222.67v-34.87h25.63c3.5,0,5.25-1.19,5.25-3.57v-.21c0-1.54-1.61-5.32-4.83-11.34l-53.36-102.51h60.92l31.51,72.68,29.2-72.68h56.72l-54.41,117.85c-5.6,12.18-11.76,21.01-18.49,26.47-6.72,5.46-15.06,8.19-25,8.19h-53.15Z"/></svg>