<?xml version="1.0" encoding="UTF-8"?><svg id="Layer_1" xmlns="http://www.w3.org/2000/svg" viewBox="0 0 824.12 640.84"><path d="M645.96,559.56c0-.83,0-1.66,0-2.5,.2-23.54,3.12-16.81-15.22-30.93-42.49-32.71-75.26-73.17-98.17-121.55-6.04-12.76-10.75-26.14-16.66-38.96-14.23-30.87-37.92-50.42-71.3-57.71-5.47-1.2-11.24-1.41-16.87-1.47-30.45-.33-60.44-3.73-89.75-12.36-37.2-10.96-67.36-32.72-93.84-60.32-6.79-7.08-14.02-13.78-21.39-20.26-6.65-5.84-8.61-5.67-14.56,.58-17.41,18.31-39.18,22.04-62.91,18.7-23.6-3.32-44.68-13.82-65.99-23.64-7.23-3.33-14.65-6.34-22.2-8.82-5.4-1.77-8.17-.01-9.93,5.33-1.08,3.29-1.52,6.8-2.23,10.22-1.52,7.33-4.94,10.25-12.36,10.52-13.27,.5-26.92-8.82-31.36-21.4-3.93-11.13,1.91-26.07,13.59-34.37,10.18-7.23,21.96-10.06,34.03-12.09,15.37-2.59,30.52-1.38,45.58,2.28,8.42,2.05,13.52-1.54,14.72-10.09,1.83-13.04-2.19-18.99-14.56-23.45-8.26-2.98-16.3-3.31-24.37-.27-11.62,4.38-20.41,1.01-28.29-8.24-4.45-5.22-10.5-9.1-15.88-13.52-2.82-2.32-6.09-4.18-8.6-6.78-6.29-6.52-5.73-15.14,1.05-21.1,1.5-1.32,3.07-2.57,4.74-3.67,6.57-4.34,10.22-10.42,10.65-18.25,.37-6.71,3.69-11.66,9.63-14.01,12.72-5.04,20.06-14.86,25.6-26.63,1.34-2.85,2.87-5.64,4.55-8.31,3.16-5.01,5.12-5.18,9.19-.7,2.68,2.95,5.02,6.21,7.61,9.26,4.97,5.85,6.72,5.87,11.8,.28,3.13-3.45,6.02-7.16,9.42-10.31,4.67-4.32,7.02-4.02,10.28,1.28,3.83,6.23,7.16,12.76,10.91,19.04,.81,1.36,2.43,3.04,3.78,3.14,29.91,2.32,57.42,12.48,83.99,25.61,42.66,21.09,80.94,48.79,117.4,79.05,24.86,20.63,48.68,42.54,73.96,62.63,30.16,23.96,63.34,43,100.6,53.94,19.2,5.64,38.95,8.2,58.76,4.05,24.33-5.1,42.81-19.95,59.23-37.76,17.23-18.69,28.02-41.11,37.4-64.36,11.01-27.3,21.88-54.67,38.09-79.5,18.78-28.77,43.03-51.51,73.97-66.8,3.56-1.76,7.35-3.2,11.18-4.21,20.35-5.37,35.8,8.54,32.41,29.35-2.31,14.22-8.8,26.47-21.17,34.22-11.95,7.49-24.56,14-37.18,20.34-27.16,13.64-50.05,32.02-64.2,59.32-12.23,23.59-24.55,47.31-34.34,71.95-11.02,27.74-29.67,48.12-53.41,64.82-10.76,7.57-10.95,7.66-2.3,17.5,10.94,12.44,15.55,27.75,19.83,43.12,9.95,35.73,12.7,72.3,12.04,109.24-.37,21.05,10.06,36.69,25.69,49.58,.07,.06,.16,.11,.25,.16,14.86,7.17,21.49,18.65,20.31,35.4-.62,8.85,2.99,17.29,7.48,25.03,2.17,3.74,4.48,7.41,6.87,11.01,4.45,6.71,5.8,13.3,1.81,21.05-2.2,4.26-2.99,9.56-3.24,14.45-.39,7.79,.05,15.64,.45,23.44,.38,7.35-2.08,10.12-9.62,9.66-16.7-1.03-28.94-9.08-36.68-23.86-7.11-13.58-9.19-28.38-10.1-43.4-.28-4.64-.04-9.32-.04-13.98h-.15Z" fill="#FFFFFF"/></svg>