<?xml version="1.0" encoding="UTF-8"?><svg id="Layer_1" xmlns="http://www.w3.org/2000/svg" viewBox="0 0 699.54 763.46"><defs><style>.cls-1{fill:#fff;}</style></defs><path class="cls-1" d="M398.42,0c2.34,.54,4.68,1.08,7.02,1.63-.03,.35-.06,.7-.09,1.04-1.26,.07-2.55,.36-3.76,.17-2.83-.45-5.62-1.1-8.41-1.75-.29-.07-.45-.71-.67-1.09,1.97,0,3.94,0,5.91,0Z"/><path class="cls-1" d="M421,12.9c.68-1.98,3.43-2.35,3.48-5.14,.03-1.47,5.32-.58,6.85,1.62-1.11,.41-2.15,.79-3.33,1.23,1.89,1.07,3.64,2.05,5.65,3.19-.14,.54-.35,1.31-.55,2.07-1.68-.98-3.25-1.9-5.46-3.18,.03,3.33-.98,4.8-3.66,4.51,1.74,2.09,6.12,2.62,8.25,1.11,.32-.22,.56-.79,.83-.79,1.52,.02,3.05,.07,4.54,.32,.36,.06,.59,.89,.88,1.37-1.15,.6-2.25,1.36-3.47,1.75-1.17,.37-2.46,.35-4.53,.6,2.84,1.1,4.96,1.92,7.11,2.75,.52-.94,.96-1.74,1.68-3.04,.64,1.66,1.09,2.84,1.74,4.55,.97-3.29,2.84-4.19,5.83-2.8-2.89-3.31,.5-4.79,1.56-6.85,.54-1.05,1.34-1.98,2.09-2.92,.55-.69,1.22-1.29,1.83-1.94,.61,1.03,1.57,2,1.73,3.1,.15,1.06-.59,2.23-.82,3.37-.63,3.08,.08,4.01,3.8,4.74-.45-.8-1.02-1.39-1.05-2-.02-.45,.67-.92,1.12-1.47-.53-.45-1.27-1.06-2.01-1.68,.06-.21,.13-.43,.19-.64,1.35,.17,2.7,.33,3.49,.43,.89-.79,1.75-1.77,1.92-1.67,1.27,.8,3.78-.25,3.83,2.3,.04,1.99-.8,3.38-2.83,2.99-.12,1.18,.14,2.45-.38,3.13-2.19,2.87-.17,3.43,1.45,4.02,1.15-1.83,2.17-3.45,3.19-5.07,.26,.15,.52,.29,.79,.44,.09-1.23,.18-2.46,.27-3.73,3.49,.87,5.86,3.52,5.83,6.67-.03,2.84,1.86,3.92,3.98,4.84,.44,.19,1.27,.12,1.56-.18,.28-.28,.21-1.05,.09-1.56-.28-1.16-.7-2.29-1.06-3.43,.22-.18,.44-.36,.66-.54,3.12,1.61,6.24,3.22,9.43,4.87,2.71-2.21,3.89-2.11,6.22,.73,2,2.43,3.93,4.92,5.98,7.51,1.16-2.82,2.89-3.01,4.44-.37,.98,1.68,2.26,2.11,3.81,2.72,3.4,1.34,6.71,2.92,10.09,4.43,2.62-2.93,2.54-2.82-.53-5.14-2.51-1.9-4.8-4.09-7.19-6.15,.15-.25,.31-.49,.46-.74,.61,.09,1.3,.02,1.81,.29,3.83,2.09,7.66,4.17,11.38,6.44,.78,.47,1.02,1.75,1.65,2.55,.79,1,1.73,1.88,2.61,2.81,.25-.21,.5-.42,.75-.63-.37-.81-.74-1.63-1.2-2.65,.67,0,1.26-.18,1.61,.03,4.44,2.59,8.99,5.03,13.22,7.93,3.14,2.15,5.49,6.21,8.83,7.15,7.21,2.02,10.46,9.02,16.84,11.78,.7,.3,1.19,1.08,1.51,2.28-1.84-.12-3.69-.25-5.6-.38,.61,3.16,2.21,4.18,4.87,3.17,2.21-.84,3.65-.68,5.65,1.2,1.92,1.81,3.93,3.09,4.77,5.86,.35,1.15,2.24,1.83,3.66,2.89,.07-.08,.58-.65,1.63-1.85v5.86c2.08,.41,3.55,3.84,6.31,.05,.81,1.93,1.41,3.36,2.01,4.8,4.52,3.19,7.85,7.86,11.77,12.08,3.42,3.68,6.43,7.55,9.5,11.47,1.7,2.17,4.06,3.8,5.94,5.84,2.75,2.98,5.11,6.35,8.05,9.1,3.04,2.84,5.47,5.96,7.29,9.66,.34,.69,1.7,.94,1.9,1.6,.36,1.16,.2,2.48,.25,3.74-.97-.4-2.31-.54-2.85-1.26-2.11-2.84-3.86-5.94-5.94-8.81-1.71-2.36-3.69-4.51-5.54-6.76-1.73-2.09-3.75-4.01-5.08-6.33-1.59-2.77-3.72-4.44-6.51-5.9-1.93-1.01-3.15-3.35-4.71-5.07-1.51-1.66-3.06-3.28-5.06-4.5,2.8,4.68,4.93,9.78,10.11,12.59,1.98,1.07,3.5,2.99,4.95,5.19h-3.13c1.28,1.28,2.15,2.78,2.81,2.7,3.12-.42,4.24,1.91,5.98,3.62-2.29,.78-2.38,2.21-.3,3.36,.84,.46,1.78,.72,3.04,1.22-1.99,1.67-1.7,3.1-.31,4.78,6.25,7.55,11.81,15.59,16.1,24.42,1.69,3.48,2.76,7.27,4.13,10.92,.3,.8,.68,1.58,1.06,2.43,2.22-1.93,2.25-1.95,1.29-4.25-1.24-2.98-2.56-5.92-3.82-8.89-.4-.95-.7-1.93-1.04-2.9,.26-.19,.52-.37,.78-.56,.84,.9,2.06,1.66,2.45,2.72,3.48,9.44,6.83,18.93,10.16,28.43,1.03,2.95,1.97,5.95,2.69,8.99,.29,1.22-.12,2.61-.62,3.9-.41,1.22,2.75,2.2,.34,3.28,.51,1.25,.96,2.23,1.31,3.25,.94,2.73,2.14,5.43,2.69,8.24,1.43,7.3,3.19,14.62,3.65,22.01,.53,8.46-.07,17-.5,25.48-.07,1.43-1.83,2.77-2.9,4.27,3.61,2.32,2.4,6.01,2.5,10.36-1.24-1.1-1.86-1.65-2.47-2.19-2.01,1.76-1.85,3.58-.91,6,.7,1.8,.51,4.15,.12,6.14-.51,2.63-1.59,5.15-2.43,7.72,.25,.11,.49,.22,.74,.32,.7-1.07,1.4-2.14,2.58-3.96,.38,1.52,.92,2.46,.76,3.26-.74,3.64-1.84,7.21-2.51,10.87-.71,3.89-.93,7.88-1.63,11.77-.42,2.35-1.36,4.61-2.05,6.92-1.19,3.99-2.32,8.01-3.55,11.99-1.53,4.96-3.14,9.89-4.7,14.84-.2,.63-.3,1.3-.45,1.94l.95,.44c2.04-4.23,4.07-8.46,6.11-12.69,.31,.16,.61,.31,.92,.47-2.12,7.53-4.24,15.05-6.36,22.58-5.76,3.96-4.86,12.28-10.19,16.52l-.94-.38c.38-1.69,.76-3.38,1.13-5.07-.24-.1-.48-.2-.71-.3-2.72,5.61-5.45,11.22-8.17,16.83-.29-.08-.58-.16-.87-.23-.14-2.63-.1-5.2,1.08-7.78,6.29-13.79,12.54-27.6,18.72-41.45,.67-1.49,1.77-3.35-.79-4.69-1.34,1.78-3.93,2.84-2.81,6.08,.28,.81-.67,2.17-1.27,3.15-3.04,5-6.22,9.92-9.21,14.95-3.46,5.84-6.88,11.7-10.05,17.7-1.06,2-1.27,4.45-1.44,6.87l1.81-2.27c.24,.07,.48,.14,.72,.2-.23,1.54-.14,3.23-.75,4.6-1.27,2.86-2.85,5.58-4.43,8.29-3.34,5.75-6.73,11.48-10.18,17.17-.61,1.01-1.57,1.8-2.37,2.69-.27-.09-.53-.18-.8-.28v-5.6c-.28-.08-.56-.15-.84-.23-2.25,4.8-4.45,9.63-6.77,14.41-2.17,4.48-4.96,8.72-6.56,13.38-1.98,5.77-5.65,10.24-9.37,14.76-1.02,1.24-2.97,1.8-3.79,3.11-2.22,3.54-4.11,7.3-6.03,11.02-.33,.64-.15,1.55-.2,2.26-1.02-1.08-2.17-2.14-3.08-3.36-.32-.42-.31-1.4-.04-1.89,.76-1.34,1.82-2.51,2.61-3.84,.63-1.05,1.03-2.24,1.4-3.07,3.67-4.84,7.52-9.31,10.68-14.22,4.64-7.22,9.09-14.59,13.03-22.21,3.13-6.06,5.47-12.55,7.93-18.93,.46-1.18-.15-2.77-.95-4.26-1.45,2.95-2.83,5.94-4.38,8.85-2.88,5.41-5.92,10.73-8.79,16.14-2.06,3.89-3.79,7.97-5.98,11.79-2.03,3.53-4.51,6.79-6.74,10.21-1.27,1.96-2.59,3.91-3.59,6.01-1.03,2.16-2.12,1.82-3.64,.37-1.09,2.55-2.1,5.05-3.25,7.5-.4,.86-1.22,1.52-1.68,2.37-.63,1.14-1.45,2.33-1.56,3.55-.21,2.35-.96,3.82-3.47,4.38-1.37,.3-2.58,1.32-3.26,1.69,.97,2.14,2.52,3.93,2.13,5.08-.5,1.52-2.52,2.54-3.88,3.76,2.58,3.32,2.44,4.02-1.72,4.52-3.23,.39-3.94,2.09-4.19,4.85-.12,1.37-.73,2.93-1.63,3.94-3.23,3.62-6.75,6.98-10.03,10.56-1.44,1.57-2.52,3.47-3.87,5.13-1.1,1.35-2.35,2.58-3.83,3.62-.61-3.93,1.9-6.42,3.74-9.02,1.54-2.18,4.03-3.67,5.76-5.75,1.77-2.14,3.23-4.56,4.58-6.99,.3-.53-.44-1.64-.48-1.77-6.28,6.35-12.65,12.74-18.97,19.17-6.34,6.45-12.8,12.79-18.9,19.45-6.82,7.45-15.42,12.35-23.9,17.43-6.94,4.16-14.15,7.89-21.21,11.86-6.52,3.67-12.97,7.44-19.49,11.1-4.58,2.57-9.3,4.81-14.8,5.87,2.58-4.75,7.39-5.4,11.32-7.8,.5,.89,.91,1.62,1.38,2.45,.32-.23,.64-.33,.71-.53,.66-1.87,1.47-3.19,3.92-3.24,1.19-.02,2.33-1.53,3.52-2.34,2.41-1.64,4.79-3.31,7.25-4.87,4.6-2.92,9.22-5.8,13.87-8.63,2.38-1.45,4.98-2.57,7.24-4.18,1.88-1.34,3.41-3.17,5.1-4.78-.19-.23-.38-.46-.57-.68-1.2,.69-2.37,1.42-3.59,2.07-4.07,2.16-8.17,4.26-12.22,6.46-2.32,1.26-4.54,2.71-6.85,3.99-8.13,4.48-16.23,9.03-24.45,13.36-7.66,4.03-15.75,7.33-23.06,11.89-4.35,2.72-9.18,3.76-13.59,6.01-.46,.23-1.21-.1-2-.81,1.33-.76,2.66-1.52,3.99-2.29-.14-.31-.28-.61-.41-.92-10.38,3.68-20.76,7.37-31.09,11.04-2.16-4.06,3.1-2.78,2.9-5.54-1.76,.54-3.45,1.15-5.18,1.57-4.54,1.1-9.1,2.13-13.65,3.18-3.15,.72-6.38,1.32-7.44,5.16-2.39-.34-4.68-.66-7.6-1.08-2.76,1.96-6.47,3.47-10.74,3.57-1.19,.03-2.38,.72-3.53,1.21-.89,.38-1.68,1.14-2.59,1.33-3.64,.74-6.65,1.92-7.57,6.19-.39,1.8-2.28,1.78-3.22,.08-.93-1.68-1.68-3.1-4.05-3.2-1.79-.07-2.32-1.75-.91-2.91,1.44-1.18,3.31-1.91,5.08-2.59,1.24-.48,2.64-.55,3.97-.81l.12-1.01c-.79-.1-1.63-.42-2.36-.27-5.2,1.08-10.34,2.59-15.59,3.34-6.69,.96-13.47,1.34-20.21,1.97-.19,.02-.4,.03-.58,.1-2.4,.92-4.87,1.69-7.15,2.84-1.29,.65-2.26,1.95-3.36,2.94-2.1-2.74-10.69-1.06-13.01,3.14-1.65-3.45-4.59-2.55-7.46-2.81-4.24-.4-3.26,4.18-6.06,5.32-2.98-5.73-7.82-3.91-12.51-2.89-3.9,.85-7.81,1.64-11.72,2.45-.28,.06-.66,.13-.87,0-3.74-2.19-7.4,.41-11.13,.22-2.71-.14-5.45,.68-8.19,.86-3.77,.24-7.56,.34-11.35,.37-1,0-2.01-.46-3.88-.93,1.55-1.02,2.37-1.88,3.35-2.14,3.08-.82,6.23-1.4,9.35-2.08,1.87-.41,3.43-.24,4.28,1.82,.28,.67,.84,1.23,1.54,2.2,1.11-1.5,1.8-2.99,2.97-3.83,1.1-.78,2.69-.87,4.31-1.33,.48,1.52,.87,2.76,1.27,4.04,4.22-3.81,9.47-4.85,14.79-5.69,0-.29,.02-.58,.03-.87-1.39-.54-2.77-1.48-4.18-1.54-4.96-.21-10-.64-14.89-.03-10.14,1.25-20.29,1.44-30.47,1.68-1.92,.04-3.83,1.03-6.54,1.81-2.95-1.79-9.72-1.97-11.36,.35-1.58-1.39-3.11-2.87-4.81,.02-.27,.45-1.92,.3-2.87,.1-1.93-.41-3.81-1.05-5.52-1.54-.91,1.83-1.53,3.09-2.12,4.28-1.28-1.22-2.37-2.27-3.54-3.39-1.08,1.26-1.67,2.51-2.61,2.89-.82,.33-2.74-.04-2.96-.58-.91-2.31-2.71-2.7-4.72-2.79-2.16-.1-4.35,.12-6.5-.07-2.52-.22-4.26,.26-5.18,3-.27,.8-2.1,1.07-3.63,1.77-.45-6.01-4.55-3.32-7.23-4.11-.56,1.14-1.06,2.16-1.56,3.18-.29,.04-.57,.08-.86,.12-.51-1.81-1.02-3.62-1.62-5.78h-4.23c-.04-.39-.08-.79-.11-1.18,2.21-.36,4.41-.86,6.64-1.05,1.89-.16,3.7-.16,4.57-2.35-1.52-.51-2.91-.97-4.95-1.65,1.37-.83,2.08-1.26,3.29-1.99-3.15-2.19-6.92-.58-9.81-2.09,.99-.95,1.98-1.89,3.37-3.21-2.55-.55-4.16-.9-6.68-1.45,1.56-.58,2.29-.86,3.08-1.15-2.29-.78-4.56-1.56-7.07-2.42,2.09-1.45,3.95-2.75,6-4.18,.58,1.16,.99,1.98,1.41,2.83,2.81-1.99,5.57-3.95,8.33-5.91-.14-.45-.27-.89-.41-1.34-6.83,.92-13.66,1.85-20.5,2.77-.1-.32-.2-.63-.29-.95,2.54-1.4,5.08-2.8,7.63-4.19-3.06-.18-6.25,1.46-9.47-1.14,.89-.65,1.58-1.57,2.34-1.63,9.16-.7,18.32-1.3,27.49-1.82,.67-.04,1.54,.64,2.07,1.21,1.99,2.15,3.95,1.76,6.25,.25,2.24-1.47,5.2-1.9,7.89-2.63,.34-.09,1.03,.71,1.41,1.22,.69,.93,1.28,1.94,2.22,3.4,.81-1.58,1.39-2.73,2.08-4.08,.79,1.01,1.48,1.89,2.35,3.01,.75-3.5,3.45-4.49,6.12-4.6,2.62-.11,5.27,.77,7.98,1.22-.17-4.3-3.8-1.67-5.54-3.5,5.11-3.13,10.89-1.72,16.04-3.45,.69,1.19,1.26,2.16,2.13,3.66,.49-1.81,.84-3.06,1.19-4.36-7.4,.31-14.55,.49-21.68,1.03-1.1,.08-2.07,1.8-3.49,3.12-3.34-2.63-7.85-1.74-12.25-1.47-3.03,.18-6.09,.41-9.06,1-1.57,.31-2.98,1.45-4.44,2.25-.33,.18-.58,.76-.84,.74-2.86-.22-5.71-.49-8.55-.81-2.69-.3-5.37-1.05-8.04-.96-7.02,.24-14.02,.84-21.03,1.26-.62,.04-1.25-.22-2.41-.44,2.01-1.57,3.54-2.91,5.2-4.04,1.57-1.06,3.28-1.92,4.92-2.86-.14-.32-.28-.64-.42-.96-1.12,.16-2.23,.44-3.35,.44-.57,0-1.25-.39-1.65-.82-.14-.15,.27-1.11,.66-1.41,2.52-2.01,2.54-1.98-.91-4.29,1.85-.33,3.21-.46,4.48-.85,.77-.24,1.4-.9,2.09-1.37-.85-.26-1.7-.74-2.54-.74-2.73-.01-5.47,.19-8.2,.22-.73,0-1.46-.35-2.5-.62,5.97-2.44,11.56-4.73,17.15-7.01-.08-.34-.17-.67-.25-1.01-2.22-.29-4.43-.59-6.65-.88-.04-.17-.08-.33-.12-.5,.81-.32,1.71-.5,2.39-.99,.53-.38,.77-1.14,1.14-1.74-.2-.25-.4-.5-.6-.76,2.77-.38,5.53-.77,8.3-1.15,.58-.08,1.55,.1,1.71-.19,2.04-3.67,6.12-2.38,9.09-3.71-.89-2.74,.25-4.12,3.24-4.49,1.56-.2,3.07-.85,4.6-1.3-.13-.5-.27-.99-.4-1.49-1.98,.45-3.95,.93-5.93,1.34-.54,.11-1.31,.29-1.64,.02-4.87-3.9-10.4-2.88-15.91-2.34-1.56,.15-3.16-.15-4.75-.24,.02-.45,.04-.9,.06-1.35,3.66-.17,7.31-.33,10.97-.52,1-.05,2.43,.36,1.9-1.56l-.06,.06q3.03,1.18,5.12-1.22,4.68,2.23,6.11-1.01c3.04-.55,5.9-1.06,9.61-1.73-2.05-.59-3.28-.94-4.52-1.29,.06-.33,.11-.67,.17-1,1.7,.23,3.39,.48,5.09,.66,.87,.1,2.27,.44,2.56,.04,1.88-2.65,4.88-1.49,7.24-2.35,.34-.13,.99-.17,1.14,.02,2.34,3.11,4.65,.33,6.97,.04,2.9-.37,5.8-.84,8.71-.86,.81,0,1.63,1.43,1.83,1.61,2.59-.55,4.66-1.02,6.74-1.44,2.1-.42,4.27-.6,6.31-1.23,2.73-.85,4.35-.24,4.7,3.16,.73-.69,1.22-1.14,1.75-1.64,1.02,.68,2.06,1.37,3.15,2.09,1.38-4.77,5.52-6.24,13.26-5.95-1.25,.68-2.51,1.36-3.69,2,1.19,.84,2.73,1.51,3.64,2.67,1.37,1.74,2.5,1.48,3.95,.34,2.05-1.6,4.03-2.02,5.73,.85,1.34-3.77,4.55-4.15,7.54-4.46,9.45-1,18.97-1.42,28.36-2.77,5.46-.78,10.71-2.98,16.09-4.41,3.49-.93,7.04-1.64,10.56-2.43,.29-.06,.63,.02,.87-.11,4.16-2.34,8.32-4.71,12.94-7.33-5.27-1.48-10.01-2.54-15.12-1.54-2.39,.47-4.96,.04-7.44,.03-3.34-.02-6.68,0-10.02-.07-.64-.01-1.27-.4-2.02-1.36,.99-.28,2-.88,2.95-.8,4.93,.41,9.45-1.1,14.08-2.44,2.06-.59,4.41-.18,6.63-.18,3.77,.01,7.54,.14,11.31,.08,3.81-.07,7.64-.14,11.43-.51,6.74-.65,13.47-1.35,20.16-2.37,3.41-.52,7.06-1.08,9.23-4.86-.83,0-1.51-.02-2.19,0-5.44,.17-10.89,.15-16.3,.58-3.7,.3-7.35,1.23-11.02,1.86-.77,.13-1.69,.52-2.29,.24-3.06-1.44-5.93,.05-8.89,.24-3.61,.23-7.26-.33-10.89-.32-3.27,0-6.54,.32-9.82,.5-.19,.01-.51,.06-.54,.17-1.66,4.72-3.82,1.2-5.99,.52-1.94-.61-4.08-.62-6.13-.82-1.05-.1-2.12-.02-3.68-.69,.72-.64,1.38-1.75,2.16-1.83,3.36-.36,6.75-.57,10.13-.54,2.19,.02,4.47,1.04,6.49-1.67-1.13-.28-2.3-.98-2.93-.66-2.99,1.54-3.41-.04-3.31-2.42-.21-.12-.43-.33-.52-.28-3.24,1.66-6.33,.37-9.49-.34-.8-.18-1.93,.15-2.62,.64-4.31,3.05-6.16,3.07-9.81-.18-.44,.74-.87,1.48-1.31,2.21-1.34,2.24-1.87,2.14-3.73,.2-.93-.97-2.45-1.84-3.75-1.91-4.49-.25-9.01-.07-13.51-.17-1.94-.04-3.87-.5-5.81-.53-4.39-.08-8.78,.06-13.17-.02-4.96-.1-9.92-.34-14.88-.51-.39-.01-.79-.02-1.17,.04q-3.76,.63-7.35-1.99c4.93-.29,9.3-.54,14.47-.85-2.34-1.83-3.87-2.01-5.99-1.64-4.61,.81-9.33,1.12-14.02,1.3-1.26,.05-2.56-1.09-4.26-1.88,2.84-2.31,6.82,.3,8.79-3.21-4.41-.4-9.1,1.09-13.09-2.85-.52,.8-1.26,1.93-2.34,3.6-1.32-1.13-2.93-2.15-4.06-3.56-1.14-1.43-2.23-2.01-4.01-1.55-2.58,.67-5.19,1.2-7.57,1.74-1.9-.54-3.79-1.08-5.68-1.62,0-.26,0-.53,0-.79,1.4,.15,2.8,.33,4.2,.43,.82,.06,1.7,.17,2.45-.07,1.95-.62,3.83-1.48,5.77-2.13,5.25-1.73,6.07-1.22,7.24,5.03,1.59-2.21,2.53-4.4,4.19-5.58,1.71-1.22,4.12-1.46,6.57-2.24-.38-2.91-4.41-1.05-5.38-3.98,5.69-.72,11.4-1.44,17.11-2.16l-.09-.71c-.78-.37-1.56-.74-2.34-1.11,2.11,1.09,3.6-.46,5.4-.87,4.45-1,9.07-1.52,13.64-1.63,6.35-.15,12.71,.34,19.06,.4,5.2,.05,10.4-.09,15.61-.19,4.51-.09,9.06,.09,13.5-.51,2.59-.35,4.31,.02,5.83,2.03,.39,.51,1.05,.82,1.9,1.45,1.98-4.68,5.9-4.24,9.89-4.38,4.77-.16,9.52-1.03,14.28-1.56,.66-.07,1.42-.2,1.99,.05,4.15,1.76,7.7-.38,11.39-1.63,3.52,2.51,7.69,3.5,11.55,2.13,3.71-1.31,6.91-4.07,10.34-6.19-.1-.26-.2-.53-.3-.79-.63,0-1.26-.04-1.88,0-2.92,.21-5.9,.89-8.76,.55-3.45-.4-6.65,3.26-10.23-.42-.3,2.12-.48,3.45-.67,4.77-1.71-.68-3.42-1.36-5.22-2.08-.21,.4-.67,1.28-1.66,3.16-.77-4.33-2.81-6.29-6.16-5.17-1.36,.45-2.21,2.4-3.56,3.99,.41,0,.08,.06,.04,0-2.54-5.44-7.48-3.81-11.78-3.98-1.24-.05-2.48,.19-4.14,.33-.32,.89-.77,2.13-1.39,3.83-.84-3.11-2.71-4.38-5.46-4.58-3.94-.29-7.65-2.24-11.87-1.13-1.26,.33-3.06-1.43-4.61-2.23,.14-.4,.27-.8,.41-1.2,4.33,.46,8.65,.97,12.99,1.36,1.36,.12,2.75-.04,4.11-.17,5.36-.5,10.71-1.17,16.07-1.5,1.75-.11,3.58,.55,5.34,.99,1.68,.41,3.04,.96,4.89-.34,1.41-.99,3.76-.78,5.7-.83,7.72-.23,15.45-.29,23.18-.55,3.12-.1,6.22-.67,9.34-.78,2.11-.08,4.24,.38,6.36,.38,2.19,0,4.47,.07,6.57-.44,7.98-1.94,15.89-4.17,23.85-6.18,10.21-2.58,20.09-5.84,29.22-11.31,5.18-3.1,11.12-4.94,16.29-8.06,6.45-3.89,12.54-8.4,18.65-12.83,7.29-5.29,14.73-10.42,21.54-16.29,5.97-5.15,11.29-11.09,16.65-16.91,2.57-2.79,4.79-5.97,6.82-9.2,6.55-10.44,13.21-20.83,19.28-31.55,3.53-6.23,5.28-13.24,5.39-20.6-1.47-.38-2.8-.72-5.09-1.32,3.45-1.23,5.3-2.74,4.75-5.95-.61-.37-1.4-.78-2.1-1.29-1.59-1.16-2.9-2.07-.18-3.8,2.31-1.47,2.2-4.18,1.44-6.67-2.39-7.76-5.99-14.9-11.25-21.13-.95-1.13-2.35-1.87-3.06-2.42-.79-1.55-1.19-2.9-2.02-3.87-5.53-6.45-12.39-11-20.15-14.46-6.7-2.99-13.14-6.56-19.73-9.8-.86-.42-1.94-.39-3.1-.6-.86-.64-1.87-1.69-3.09-2.26-2.39-1.11-4.91-1.95-7.38-2.91-1.42-.55-2.88-1.65-3.88,.7-.1,.24-1.9,.21-2.43-.25-6.87-5.91-15.53-7.45-23.76-10.16-4.8-1.58-9.24-4.28-14.01-6-5.95-2.15-12.09-3.78-18.14-5.69-8.28-2.6-16.76-4.54-24.4-9.02-3.14-1.84-6.93-2.55-10.36-3.95-3.74-1.52-7.39-3.23-11.08-4.86,.06-.28,.12-.55,.18-.83,.76-.14,1.52-.27,2.66-.48-.94-.68-1.58-1.15-2.75-2,1.63-.07,2.64-.12,3.3-.15,.64-1.2,1.2-2.25,1.89-3.53-1.26-.5-2.89-1.14-4.16-1.64-1.18,.86-2.09,1.52-3,2.18-.7-1.16-1.4-2.31-1.91-3.15,2.96-.37,5.52-.7,8.08-1.02,.08-.18,.16-.37,.24-.55-3.44-1.75-6.88-3.5-10.32-5.26,.05-.27,.11-.54,.16-.81,.84-.21,1.68-.41,2.46-.6-2.39-1.32-4.83-2.67-7.27-4.02,.1-.29,.21-.59,.31-.88,1.35-.14,2.69-.27,4.48-.45-3.01-1.95-5.59-3.62-8.18-5.3,7.44-1.29,13.71,1.91,20.44,4,.81-1.39,1.55-2.66,2.72-4.68-4.74-1.53-9.02-2.96-13.34-4.27-1.49-.45-4.25-3.85-3.43-4.72,.82-.86,2.51-.92,3.82-1.29,.96-.27,1.94-.48,2.9-.72-.07-.24-.14-.48-.21-.72-3.48-1.88-6.96-3.75-11.45-6.18,1.45-.59,2.24-.92,2.98-1.22-4.19-2.02-7.92-3.81-11.66-5.61,4.2-2.52,7.96,.62,12.61,.11-1.99-1.17-3.44-2.02-4.94-2.9v-3.5c7.34,1.7,14.48,3.35,21.62,5.01,.1-.29,.2-.58,.29-.87-2-.8-3.94-1.91-6.02-2.32-4.61-.91-8.67-2.76-12.09-5.96-.51-.48-.76-1.24-1.13-1.87,.74-.36,1.48-1.02,2.21-1.01,2.64,.02,5.28,.27,8.44,.47-1.24-.85-2.13-1.45-3.02-2.05,.05-.25,.1-.51,.15-.76,1.11,.2,2.22,.38,3.32,.6,2.76,.56,5.18,2.17,8.43,.68,1.71-.78,4.54,.46,6.71,1.23,1.76,.62,3.29,1.9,5.12,3.01v-5.28c2.76,.43,6.01,.94,9.26,1.44,.04-.19,.08-.38,.12-.57-5.96-2.13-11.91-4.27-17.87-6.4,.14-.5,.28-1,.41-1.5,4.24,.89,8.49,1.78,12.73,2.66,.04-.15,.08-.31,.12-.46-11.29-3.87-22.57-7.74-34.54-11.85,3.86-1.94,6.78-.95,9.65,.21,2.71,1.1,5.36,2.33,8.04,3.5,.1-.22,.19-.44,.29-.65-2.2-1.3-4.4-2.59-6.6-3.89l.35-1.04c4.32-.65,8.26,2.06,12.77,2.13-.55-1.09-1-1.97-1.44-2.85,.13-.23,.26-.46,.39-.68,3.56,1.38,7.1,2.83,10.7,4.13,2.54,.92,5.14,1.67,7.73,2.41,1.87,.54,3.85,.79,5.67,1.45,2.4,.88,4.65,2.12,7-.12,.37-.36,1.23-.2,2.2-.89-2.49-1.22-4.98-2.44-7.95-3.9,1.78-1.03,3.22-1.86,4.72-2.73-5.97-3.88-13.47-5.01-19.21-10.99,1.98,.5,3.17,.79,4.34,1.1,3.31,.87,6.27,2.53,10.06,2.22,3.05-.25,6.24,1.32,9.37,2.08,.71,.17,1.43,.32,2.97,.66-3.08-2.29-5.52-4.01-7.83-5.89-.48-.39-.49-1.34-.72-2.04,.26-.19,.53-.39,.79-.58-1.89-.66-3.79-1.32-5.68-1.99-.07-.23-.14-.46-.21-.7,.75-.1,1.54-.4,2.25-.27,5.9,1.06,11.79,2.2,17.8,2.94-.87-2.41-2.09-3.73-4.74-3.79-2.39-.05-4.77-.96-7.15-1.5-1.51-.34-3.03-.67-4.53-1.05-.75-.19-1.6-.29-2.17-.74-.6-.48-.9-1.32-1.34-2.01,.78-.11,1.56-.26,2.35-.31,.37-.03,.75,.12,1.33-.43-4.15-1.41-8.29-2.82-12.44-4.23-.01-.21-.02-.41-.03-.62,.96-.23,1.91-.47,2.87-.71-3.02-3.28-8.29-4.45-10.61-1.59-.23-1.93-.99-3.68-.42-4.63,.93-1.56,2.64-1.14,4.44-.48,4.34,1.59,8.84,2.77,13.3,4.02,2.02,.56,2.12,.55,3.55,4.54,1.07-3.46,3.8-2.08,6.19-2.24-1.77-1.1-3.36-2.08-5.04-3.12,2.1-4.05,5.76,.28,7.9-2-5.7-1.74-11.43-3.5-17.16-5.26,.03-.42,.06-.84,.08-1.25,.75-.14,1.51-.46,2.24-.39,2.31,.22,4.61,.59,6.92,.88,.48,.06,1.11-.17,1.45,.06,3.42,2.33,7.32,1.66,10.93,1.3,2.93-.29,5.39,.29,8.09,1.03,1.14,.31,3.17-.92,4.08-2.03,.91-1.12,1.15-2.94,1.29-4.49,.19-2.12-1.38-2.43-3.11-2.6-.83-.08-1.61-.75-2.25-1.83,.6-.1,1.19-.28,1.8-.3,3.17-.1,6.41-.6,9.49-.11,3.03,.49,6.29,1.32,8.04,4.65-2.28,2.38-6.04-2.19-7.91,1.42,2.05,.24,4.13,.54,6.23,.73,2.11,.19,4.06,.63,6.38-.1,1.58-.5,3.93,1.43,6.45,2.49,.6-.24,1.9-1.06,3.28-1.24,1.39-.19,2.87,.25,5.04,.5-1.36-1.19-2.16-1.88-3.67-3.21h7.64c.64-1.03,.89-3.68,4.22-2.6-.02-.39-.05-.77-.07-1.16-3.81-1.19-7.63-2.37-11.48-3.57,1.62-1.6,16.1,.71,20.94,3.34,1.54-1.9,3.29-1.84,5.15-.26,2.54,2.17,4.36,.35,6.46-1.64-2.33-.98-4.52-2.32-6.89-2.83-5.59-1.21-11.27-2.01-16.91-3.03-1.81-.32-3.63,.32-4.9-2.46-.66-1.44-4.81-1.28-8.01-1.99,.02-.28,.08-1.39,.17-2.95-5.33-1.15-10.86-2.38-16.39-3.54-5.46-1.15-10.92-2.25-16.56-3.41-.45,.75-.93,1.56-1.64,2.74-.96-1.66-1.77-3.05-2.57-4.43,.16-.24,.32-.48,.48-.73,1.67,.31,3.34,.88,5,.87,9.06-.04,17.49,3.21,26.23,4.8,.75,.14,1.48,.38,2.39,.07-3.48-1.38-6.96-2.76-11.4-4.52,1.62-.45,2.68-1.11,3.58-.93,2.97,.59,5.85,1.58,8.81,2.22,4.67,1.01,9.37,1.86,14.08,2.43-2.12-1.28-4.29-2.5-6.34-3.88-.5-.34-.63-1.23-.93-1.87,.71-.2,1.46-.63,2.13-.54,1.83,.26,3.62,.74,5.43,1.13,.07-.35,.13-.69,.2-1.04-2.71-.49-5.43-.94-8.14-1.46-2.67-.51-5.33-1.09-8-1.65,1.37-2.82,11.24-1.72,13.6,.83,2.7-.23,4.78-.6,6.85-.53,2.76,.1,5.5,.54,8.25,.83,.29,.03,.63,.11,.88,0,2.14-.91,4.27-1.86,6.16-2.7-.22-.44-.54-1.08-.86-1.72,.67-.3,1.34-.83,2.02-.86,2.06-.07,4.13,.11,6.19,.1,.83,0,1.65-.23,2.48-.36-.02-.24-.04-.48-.06-.72-.85-.25-1.71-.5-2.56-.74,.07-.07,.15-.15,.22-.22ZM158.01,570.49c-.13-.32-.27-.64-.4-.95-2.45,1.11-6.36-1.27-7.6,4.08,2.99-1.17,5.5-2.15,8-3.13Zm-42.4,29.6c-1.08-.85-2.21-1.96-2.38-1.83-1.05,.81-1.88,1.9-2.79,2.9,.16,.25,.31,.49,.47,.74,1.32-.51,2.64-1.02,4.7-1.82Z"/><path class="cls-1" d="M400.77,721.62c-4.3,9.58-8.59,19.15-12.89,28.73-.4,.9-.98,1.76-1.18,2.7-1.3,6.25-5.14,8.22-11.23,7.27-1.82-.29-2.72-.79-3.44-2.42-5.36-12.03-10.79-24.03-16.58-36.87-.14,1.58-.27,2.36-.27,3.14-.01,8.37-.01,16.75,0,25.12,0,4.87,.05,4.91,4.94,4.93,.79,0,1.57,0,2.6,0v5.76h-25.28v-5.76c1.94,0,3.78-.05,5.62,.01,1.84,.07,2.79-.73,2.79-2.58,0-9.75,0-19.5,0-29.25,0-2.24-1.32-3.19-3.35-3.28-1.75-.08-3.51-.02-5.46-.02v-6.16h3.8c7.68,0,15.37,.17,23.05-.09,2.81-.1,3.94,1.01,4.96,3.34,3.66,8.38,7.49,16.68,11.27,25.01,.27,.6,.59,1.17,1.09,2.17,.61-1.19,1.06-2.01,1.45-2.86,3.88-8.5,7.71-17.02,11.65-25.48,.39-.83,1.37-1.97,2.09-1.98,9.43-.13,18.87-.09,28.51-.09v6.15c-1.86,0-3.7-.06-5.53,.02-2.09,.09-3.29,1.19-3.28,3.36,.02,9.65,.05,19.3,.1,28.95,.01,1.88,.88,2.92,2.93,2.8,1.76-.1,3.54-.02,5.55-.02v5.78h-30.76v-5.77c1.43,0,2.97-.08,4.49,.02,2.16,.13,3.06-.88,3.06-2.96-.01-9.84,0-19.67,0-29.51-.23-.04-.46-.09-.69-.13Z"/><path class="cls-1" d="M50.67,715.1c.3-.96,.56-1.78,.83-2.64h6.13v15.85c-4.88,.92-4.68,.7-7.29-2.88-1.54-2.12-3.83-4.08-6.22-5.12-8.39-3.68-17.14-4.01-25.98-1.63-1.03,.28-2.27,.58-2.92,1.31-1.03,1.16-2.39,2.78-2.23,4.02,.15,1.15,2,2.74,3.31,2.97,5.9,1.03,11.91,1.45,17.82,2.45,5.89,1,11.89,1.88,17.52,3.78,7.21,2.44,10.44,8.56,9.29,15.52-.62,3.74-2.71,6.5-5.87,8.46-7.67,4.77-16.23,6.2-24.96,5.35-6.87-.67-13.62-2.62-20.87-4.09-.09,.37-.33,1.43-.63,2.68H1.64v-18.48h6.4c.97,6.55,5.7,9.39,11.46,11.07,6.99,2.04,14.06,2.92,21.26,1.11,.95-.24,1.9-.5,2.83-.83,2.55-.9,4.83-2.27,4.71-5.33-.13-3.18-2.67-4.17-5.33-4.54-6.14-.86-12.32-1.44-18.44-2.4-5.04-.79-10.15-1.53-14.99-3.04-6.47-2.01-9.75-7.06-9.52-13.34,.21-5.77,3.84-9.12,8.62-11.32,9.74-4.49,19.93-5.17,30.29-2.67,3.88,.94,7.64,2.41,11.75,3.73Z"/><path class="cls-1" d="M205.15,741.52c0-6.86,.1-13.5-.13-20.13-.03-.81-1.7-2.04-2.76-2.23-1.99-.36-4.08-.1-6.31-.1v-5.94h27.6v5.92c-1.76,0-3.4-.02-5.04,0-3.31,.06-3.85,.53-3.81,4.1,.09,8.46,.3,16.92,.43,25.38,.05,3.73,0,7.47,0,11.58-4.79-.09-9.24,.96-13.56-3.17-10.52-10.06-21.62-19.51-32.78-29.46-.14,.9-.31,1.5-.31,2.1-.02,6.99,.09,13.99-.06,20.97-.06,2.91,1.09,3.91,3.86,3.67,1.75-.15,3.51-.03,5.46-.03v5.82h-27.04v-5.82c1.87,0,3.63-.07,5.39,.02,1.97,.11,2.99-.69,2.99-2.69,0-9.75,.02-19.5,0-29.25,0-2.06-1.23-3.06-3.16-3.16-1.85-.1-3.7-.02-5.72-.02v-6.14c7.58,0,15.04-.07,22.49,.09,.97,.02,1.99,1.15,2.85,1.92,9.08,8.16,18.12,16.35,27.19,24.52,.77,.7,1.59,1.34,2.41,2.03Z"/><path class="cls-1" d="M568.66,715.37c.33-1.18,.56-2,.82-2.93h6.11v15.82c-4.33,1.1-4.58,.65-7.11-2.73-1.68-2.25-4.14-4.34-6.7-5.43-8.02-3.41-16.43-3.67-24.89-1.67-1.13,.27-2.49,.58-3.21,1.36-1.17,1.25-2.68,2.96-2.58,4.38,.08,1.18,2.13,2.88,3.55,3.18,4.51,.97,9.14,1.33,13.71,2.03,6.22,.96,12.48,1.75,18.61,3.12,5.27,1.18,9.7,3.93,11.59,9.46,1.98,5.77,.07,11.64-5.09,15.01-7.66,5-16.35,6.41-25.18,5.56-6.96-.67-13.79-2.63-20.97-4.08-.09,.42-.32,1.43-.59,2.64h-7.03v-18.4h6.35c1.64,8.48,8.51,10.53,15.73,12.09,6.96,1.5,13.85,1.56,20.61-1.07,2.41-.94,4.1-2.4,3.94-5.21-.16-2.77-2.14-3.97-4.48-4.34-6.89-1.09-13.84-1.87-20.72-3-4.74-.77-9.53-1.53-14.09-2.97-5.42-1.72-8.7-5.77-9.01-11.59-.3-5.51,2.62-9.44,7.34-11.84,12.32-6.25,24.99-6.05,37.8-1.62,1.75,.61,3.44,1.38,5.5,2.22Z"/><path class="cls-1" d="M106.97,763.2c-8.51,.05-17.03-1.85-24.58-7.08-13.84-9.59-13.99-29.07-.34-38.8,13.49-9.61,36.81-9.83,50.27-.47,14.32,9.97,14.14,30.12-.4,39.78-7.38,4.9-15.66,6.59-24.95,6.56Zm.35-7.13c11.89,.06,20.4-8,20.45-19.35,.05-11.41-8.37-19.61-20.18-19.66-11.94-.05-20.37,7.95-20.4,19.37-.03,11.52,8.24,19.58,20.13,19.64Z"/><path class="cls-1" d="M480.85,719.04v-5.95h27.35v5.95c-1.72,0-3.38,.1-5.02-.02-2.76-.2-3.89,.86-3.83,3.74,.17,7.48,.13,14.97,.14,22.45,0,8.73-3.65,13.96-12.13,16.21-10.66,2.83-21.48,2.72-32.07-.41-8.57-2.54-12.05-7.72-12.05-16.63,0-6.6,.02-13.2,0-19.8-.02-5.19-.39-5.53-5.52-5.54-1.16,0-2.31,0-3.54,0-.09-.95-.17-1.52-.18-2.09-.02-1.17,0-2.35,0-3.77h33.52v5.88c-1.94,0-3.79,.04-5.64-.01-1.97-.05-2.98,.94-2.98,2.83-.01,8.66-.2,17.34,.15,25.99,.2,5.03,3.2,7.99,8.27,9.04,5.09,1.05,10.2,.81,15.16-.85,4.71-1.57,6.91-4.51,6.97-9.47,.1-7.98,0-15.95,.05-23.93,.02-2.46-1.01-3.68-3.51-3.61-1.65,.05-3.3,0-5.1,0Z"/><path class="cls-1" d="M699.54,743.75c-1.89,7.26-5.99,12.49-12.47,15.8-13.15,6.71-34.11,3.95-45.06-5.85-11.56-10.35-9.47-29.65,4.45-37.52,13.82-7.81,28.19-8.6,42.69-1.59,1.97,.95,3.66,1.67,3.68-1.65h6.25v17.38h-5.93c-6.25-12.01-20.77-16.88-33.11-10.95-6.91,3.32-10.09,9.23-10.24,16.66-.16,7.67,2.85,13.98,9.92,17.45,8.93,4.38,17.81,3.23,26.21-1.7,1.8-1.05,3.71-2.73,4.47-4.57,1.81-4.39,5.05-4.08,9.15-3.45Z"/><path class="cls-1" d="M261.8,713.11v5.72c-1.56,.16-3,.3-5.53,.56,4.26,5.13,8.07,9.71,12.17,14.64,4.06-4.75,7.91-9.26,12.3-14.38-2.32-.37-3.95-.62-5.72-.9v-5.63h26.39v5.67c-.52,.1-.92,.29-1.27,.23-5.59-1.02-9.15,1.74-12.43,5.93-4.18,5.34-9.05,10.15-13.27,15.46-1.18,1.49-1.52,3.94-1.57,5.97-.18,7.68-.07,7.68,7.53,7.85,.38,0,.77,.06,1.35,.11v5.68h-32.14v-5.8c1.94,0,3.8-.1,5.63,.02,2.35,.15,3.2-.92,3.09-3.16-.09-1.97,.22-3.98-.09-5.9-.28-1.73-.76-3.68-1.83-4.97-4.65-5.6-9.67-10.9-14.31-16.51-2.72-3.28-5.73-5.29-10.14-4.67-.75,.11-1.54-.08-2.46-.15v-5.76h32.29Z"/><path class="cls-1" d="M591.93,719.09v-5.94h32.6v5.91c-2.03,0-3.97,0-5.92,0-2.04-.01-3,.85-2.98,3.03,.07,9.55,.07,19.1,0,28.65-.02,2.62,.95,3.81,3.69,3.51,1.65-.18,3.34-.03,5.25-.03v5.77h-32.66v-5.77c1.91,0,3.84-.07,5.77,.02,2,.09,2.9-.77,2.9-2.77-.02-9.94-.04-19.89,.02-29.83,0-1.83-.89-2.49-2.49-2.53-1.95-.04-3.91-.01-6.18-.01Z"/><path class="cls-1" d="M529.76,523.9c-2.12,1.73-4.24,3.45-6.5,5.3,.12,.15,.5,.64,.85,1.08-4.32,4.83-8.47,9.8-13,14.38-2.02,2.04-4.89,3.22-7.26,4.95-5.39,3.92-10.66,8-16.09,11.86-1.29,.91-3.02,1.21-4.15,2.27,.46-.58-.23-2.38,1.79-3.8,3.52-2.46,7.06-4.88,10.64-7.25,.83-.55,1.82-.87,2.86-1.35,.82-4.88,5.33-6.59,8.83-9.17,2.58-1.9,5.72-3.14,8.03-5.29,2.44-2.28,4.11-5.37,6.27-7.97,1.56-1.88,3.33-3.6,5.11-5.27,.48-.45,1.36-.48,2.05-.7,.19,.33,.37,.65,.56,.98Z"/><path class="cls-1" d="M420.78,13.12c-3.71-.67-7.43-1.32-11.14-2.03-.39-.08-.98-.43-1.02-.72-.05-.35,.31-1.02,.62-1.11,.99-.3,2.04-.53,3.06-.54,1.45-.01,2.9,.19,4.71,.33-.98-4.24-5.27-2.47-7.68-5.17,2.11-.12,3.77-.49,5.33-.23,1.78,.29,3.5,1.05,5.17,1.78,.49,.21,.99,.98,1.03,1.53,.15,1.97,.11,3.96,.14,5.94-.07,.07-.15,.15-.22,.22Z"/><path class="cls-1" d="M225.53,487.64c-3.82-1.32-7.45-.82-11,.76-.29,.13-.73-.08-1.1-.15-2.16-.38-4.32-.74-6.47-1.15-.59-.11-1.15-.36-1.75-1.2,1.14-.4,2.25-.87,3.41-1.17,2.43-.63,4.89-1.7,7.32-1.63,3.04,.09,6.07,1.06,9.05,1.86,.52,.14,.76,1.29,1.14,1.98-.2,.24-.39,.47-.59,.71Z"/><path class="cls-1" d="M658.25,178.27c.79,2.78,1.58,5.55,2.37,8.33,1.14,3.99,2.27,7.97,3.43,12.05-2.02,1.54-2.99,.47-3.72-1.54-.55-1.51-1.28-2.96-1.95-4.42-.24-.51-.89-1.25-.74-1.47,2.31-3.32-.06-6.4-.41-9.57-.11-.99-.29-1.98-.44-2.97,.49-.14,.98-.27,1.47-.41Z"/><path class="cls-1" d="M101.34,459.32c3.32-1.94,4.2-1.67,7.02,1.98,1.91-2.3,4.06-3.68,7.34-4.03,3.35-.36,4.61,2.92,7.76,3.33-.76,.33-1.87,1.17-2.23,.92-2.9-1.97-5.96-1.07-9-.78-2.56,.24-5.12,.7-7.67,.64-.99-.02-1.95-1.2-3.22-2.06Z"/><path class="cls-1" d="M367.84,596.19c-1.09,.8-2.06,1.54-3.06,2.24-1.53,1.07-3.09,2.1-4.61,3.18-2.51,1.79-4.24,.23-5.99-1.33,2.06-3.15,10.69-5.93,13.66-4.09Z"/><path class="cls-1" d="M671.22,269.21c-4.36-1.54-4.82-2.96-3.02-6.75,1.13-2.39,1.67-5.05,2.5-7.68,2.07,4.79,2.18,7.7,.51,14.42Z"/><path class="cls-1" d="M295.26,608.23c.21,.17,1.16,.55,1.22,1.04,.06,.53-.6,1.53-1.13,1.69-3.44,1.01-6.92,1.89-10.42,2.67-.27,.06-1.2-1.31-1.1-1.43,.74-.93,1.55-2.18,2.56-2.45,2.71-.71,5.54-.98,8.87-1.51Z"/><path class="cls-1" d="M262.79,163.91c3.54,2.77,8.95,.77,11.79,5.47,.32,.53,1.45,.51,2.08,.94,.48,.33,.75,.95,1.12,1.45-.54,.29-1.28,.96-1.6,.8-1.84-.92-4.47-.67-5.15-3.51-.14-.57-1.53-.88-2.37-1.23-2.13-.87-4.29-1.7-6.43-2.54,.19-.46,.38-.92,.57-1.38Z"/><path class="cls-1" d="M386.77,13.94c-2.9,2.44-11.22,1.3-18.35-3.16,.84,.19,1.84,.15,2.5,.6,2.55,1.72,5.08,1.75,8.08,1.14,2.47-.5,5.19,.21,7.8,.39,0,.34-.02,.69-.03,1.03Z"/><path class="cls-1" d="M666.03,216.45c-4.69-5.84-5.01-7.72-2.07-11.4,4,3.25,1.29,7.67,2.07,11.4Z"/><path class="cls-1" d="M404.23,15.11c-4.96-.53-9.14-.98-14.04-1.51,2.93-2.73,11.83-1.76,14.04,1.51Z"/><path class="cls-1" d="M92.58,524.48c-4.63,.9-5.23-2.87-6.73-5.99h7.47c.04,.23,.08,.47,.12,.7-1.36,.73-2.72,1.47-4.71,2.54,2.46,.22,4.49,.08,3.79,2.81,0,0,.05-.06,.05-.06Z"/><path class="cls-1" d="M340.31,604.53c.35-.5,.59-1.27,1.07-1.46,2.24-.91,4.52-1.76,6.85-2.39,.65-.18,1.52,.43,2.29,.67-.47,.64-.82,1.67-1.43,1.87-2.71,.85-5.5,1.45-8.27,2.15-.17-.28-.34-.55-.51-.83Z"/><path class="cls-1" d="M133.03,472.07c2.38-1.66,7.27-1.83,9.15-.28,.44,.37,.68,1.13,.75,1.74,.03,.25-.68,.87-.98,.83-2.8-.38-5.58-.85-8.36-1.36-.24-.04-.38-.61-.56-.93Z"/><path class="cls-1" d="M497.1,27.25c3.46,1.49,6.91,2.98,10.7,4.61-2.91,1.89-6.89,.3-11.01-3.86,.1-.25,.21-.5,.31-.75Z"/><path class="cls-1" d="M670.46,249.93c-1.62-.51-2.31-.72-2.99-.93,.25-.54,.64-1.06,.71-1.62,.14-1.06,.13-2.15,.14-3.23,.02-1.38,0-2.77,0-4.15,.46,0,.92-.02,1.37-.02,.23,3.06,.47,6.13,.76,9.96Z"/><path class="cls-1" d="M202.72,486.82c-2.86,1.69-5.83,.86-8.78,.56-.03-.38-.05-.76-.08-1.13,2.91-.27,5.82-.54,8.72-.81,.05,.46,.09,.92,.14,1.39Z"/><path class="cls-1" d="M374.86,48.63c1.65-1.24,6.17-1.19,7.3,.11,.21,.24,.28,.98,.18,1.04-.55,.29-1.25,.71-1.77,.58-1.92-.47-3.8-1.13-5.7-1.73Z"/><path class="cls-1" d="M259.16,156c-.27,.89-.55,1.79-.82,2.7-.3-.1-.6-.19-.91-.29,.49-1.52,.97-3.04,1.52-4.75,1.98,.69,3.56,1.23,5.13,1.77-.04,.19-.08,.38-.12,.57h-4.8Z"/><path class="cls-1" d="M389.21,47.42c-2.34,3.2-3.83,3.32-6.32,.64,2.43-.24,4.38-.44,6.32-.64Z"/><path class="cls-1" d="M345.49,49.11c1.93,.29,3.86,.58,6.1,.92-2.13,2.34-2.54,2.33-6.2,.23,.03-.38,.07-.77,.1-1.15Z"/><path class="cls-1" d="M104.39,519.48h-8.73l.03-.62h8.75l-.05,.62Z"/><path class="cls-1" d="M303.11,58.95h-7.53c2.86-2.38,5-2.24,7.53,0Z"/><path class="cls-1" d="M493.93,28.45c-1.46-1.1-2.67-2.01-3.88-2.93,.09-.28,.18-.55,.27-.83,1.81,.4,3.62,.8,5.8,1.29-.92,1.03-1.49,1.67-2.2,2.47Z"/><path class="cls-1" d="M304.72,608.42c-1.44,.37-2.89,.74-4.47,1.15,.19-2.74,1.72-3.3,4.47-1.15Z"/><path class="cls-1" d="M421.51,582.67c1.47-.08,1.84-3.33,4.16-1.16,.04,.04,.78-.67,1.2-1.03,.15,.31,.31,.63,.46,.94-1.81,.75-3.61,1.5-5.42,2.25l-.4-1.01Z"/><path class="cls-1" d="M134.21,453.69c1.96,.45,3.29,.76,4.88,1.12-2.37,2.1-3.23,1.95-4.88-1.12Z"/><path class="cls-1" d="M267.81,444.49c.19-1.33,.37-2.65,.67-4.77,3.58,3.68,6.78,.02,10.23,.42,2.86,.33,5.83-.34,8.76-.55,.62-.04,1.25,0,1.88,0,.1,.26,.2,.53,.3,.79-3.43,2.12-6.63,4.88-10.34,6.19-3.86,1.36-8.03,.38-11.55-2.13,0,0,.06,.07,.06,.07Z"/><path class="cls-1" d="M158.01,570.49c-2.51,.98-5.01,1.96-8,3.13,1.24-5.35,5.15-2.97,7.6-4.08,.13,.32,.27,.64,.4,.95Z"/><path class="cls-1" d="M115.61,600.09c-2.06,.8-3.38,1.31-4.7,1.82-.16-.25-.31-.49-.47-.74,.91-1,1.74-2.09,2.79-2.9,.17-.13,1.3,.98,2.38,1.83Z"/></svg>