<?xml version="1.0" encoding="UTF-8"?><svg id="Layer_1" xmlns="http://www.w3.org/2000/svg" viewBox="0 0 684.36 206.57"><defs><style>.cls-1{fill:#fff;}</style></defs><path class="cls-1" d="M147.22,113.75c.02,12.43-4.39,23.02-13.17,31.81-17.3,17.31-34.6,34.64-51.93,51.92-12.04,12.01-30.79,12.13-42.54,.33-11.81-11.85-11.61-30.38,.5-42.52,18.82-18.86,37.68-37.68,56.51-56.52,8.75-8.76,9-15.04,1.16-24.65-.7-.85-1.43-1.96-1.4-3.18,0-.19,.08-.38,.21-.51,1.09-1.13,2.56-1.1,3.85-1.18,25.34-1.57,46.78,18.86,46.82,44.51Z"/><path class="cls-1" d="M43.69,132.19c-17.4-.17-33.73-10.98-40.07-27.34C-3.33,86.89-.32,70.33,13.09,56.41c15.47-16.07,31.42-31.68,47.28-47.38,12.17-12.05,30.78-12.01,42.55-.13,11.54,11.65,11.55,30.21-.32,42.25-17.65,17.9-35.54,35.57-53.29,53.38-6.67,6.69-6.92,14.71-.98,21.32,.37,.42,.69,.88,.98,1.37,1.04,1.77,.07,4.02-1.92,4.53-.57,.15-1.13,.39-1.72,.42-.99,.04-1.25,.06-1.99,.02Z"/><path class="cls-1" d="M316.25,194.03h-25V59.03h24.4c.26,2.59,.52,5.16,.73,7.29,6.12-2.92,11.86-6.77,18.2-8.49,28.01-7.6,55.16,11.46,58.46,40.49,1.68,14.83-.88,28.65-10.17,40.78-14.89,19.42-42.6,23.37-62.63,9.03-1.06-.76-2.11-1.51-3.98-2.84v48.73Zm-.56-87.26c.05,15.87,11.17,27.52,26.15,27.39,14.77-.13,25.37-11.66,25.34-27.56-.03-15.86-10.73-27.35-25.53-27.39-14.94-.05-26.01,11.71-25.96,27.57Z"/><path class="cls-1" d="M684.36,114.03h-70.75c2.15,9.99,7.22,17.1,16.59,20.04,14.43,4.54,26.08-.42,35.72-12.53,4.7,5.3,9.18,10.36,13.96,15.75-10.41,14.05-25.51,20.14-43.56,19.49-24.61-.89-42.72-18.56-45.86-44.36-2.98-24.51,11.01-46.81,33.65-53.63,31.4-9.47,60.14,11.77,60.25,44.52,.01,3.32,0,6.64,0,10.72Zm-23.13-19c-1.3-10.53-9.88-17.39-21.36-17.7-11.99-.32-22.79,7.3-24.71,17.7h46.07Z"/><path class="cls-1" d="M272.99,71.85c-4.75,5.14-9.25,10.01-14.01,15.17-5.64-6.3-12.08-10.65-20.79-9.98-1.48,.11-2.97,.35-4.4,.74-3.36,.92-6.36,2.4-6.7,6.4-.36,4.27,2.84,5.79,6.04,6.85,7.57,2.51,15.35,4.44,22.82,7.21,16.45,6.09,23.11,15.19,22.04,29.28-1.06,14.02-10.78,24.86-26.39,27.99-19.05,3.81-36.02-.39-49.49-15.27-.88-.97-1.52-2.15-2.12-3.02,5-4.86,9.83-9.56,14.87-14.47,4.62,6.27,11.03,11.57,19.7,12.59,4.65,.55,9.58,.04,14.21-.88,3.56-.71,6.72-3.65,5.96-7.49-.51-2.58-3.01-5.72-5.42-6.77-5.9-2.58-12.34-3.89-18.43-6.1-4.97-1.81-10.07-3.66-14.54-6.42-15.35-9.5-16.57-30.86-2.72-42.54,16.59-13.99,46.54-10.46,59.37,6.73Z"/><path class="cls-1" d="M568.52,122.5c5.1,5.07,10.03,9.97,15,14.91-11.13,16.35-34.57,23.67-55.52,17.17-20.79-6.45-33.77-25.14-33.64-48.45,.12-22.75,13.54-41.34,34.29-47.48,21.05-6.24,44.1,1.2,54.79,17.27-4.98,5.02-9.86,9.95-14.76,14.89-15.89-13.7-32.17-14.97-42.9-3.17-9.69,10.66-8.99,29.85,1.44,39.55,11.28,10.48,28.37,8.55,41.31-4.69Z"/><path class="cls-1" d="M408.25,23.03h25V154.03h-25V23.03Z"/><path class="cls-1" d="M454.25,60.03h24v94h-24V60.03Z"/><path class="cls-1" d="M450.89,33.37c0-8.61,6.71-15.32,15.15-15.18,8.18,.14,15,6.87,15.14,14.92,.15,8.51-7,15.55-15.63,15.39-8.35-.15-14.66-6.67-14.66-15.14Z"/></svg>