<svg xmlns:xlink="http://www.w3.org/1999/xlink" id="Layer_1" xmlns="http://www.w3.org/2000/svg" viewBox="0 0 600 285" width="600"  height="285" ><path d="M305.6 0c5.2.6 10.3 1 15.5 2 25.6 4 48 14.6 67.4 31.6 16 14 28 31 36.5 50 .2.7.4 1.3.3 2l-1-1.3c-19.8-37-50.5-60-91-70.6-10.8-3-21.8-3.8-32.5.5-3.8 1.5-7.2 4-10.6 6-1 .6-1.7 1.8-3.2 3.3 3.2.8 5.7 1.5 8.2 2 3.2.5 6.3 1 7.8 4.4.2.3.5.7 1 .8.8.4 2 1 2.6.8.6-.2 1-1.6 1-2.5 0-2 .3-4 3.5-4-1.8-2-5.6-2.7-3.3-6.2 4.4 0 8.3 1.3 11.6 4 .6.6 2.3.6 3 0 1.3-.8 2.2-.5 3.2.2l13 8.6c-1.6.7-3 1.6-4.2 1.5-2.2 0-4.4-.7-6.6-.8-1 0-2 .7-3 1 .4 1 .6 2.4 1.3 3 1 1.2 2.7 1.8 4 2.6l.2.8-7.8 2c0 2.3-1.5 4-4 5.3-1.2.5-2 2-2.5 3.4-2 5.7-5.7 10-11.2 12.7-3 1.6-3.3 3-2 6.3 1.3 3.5 3.3 6.8 2 11-2-.2-3-2-3.6-3.5-.8-1.8-1.2-3.7-1.8-5.6-.7-2-2-2.6-4.2-2-2 .4-4.3.2-6.5.3-1.3 0-3-.5-3.8 0-2.8 1.8-5.5 1.2-8.3 1-4.6 0-8.3 1.7-10.4 6l-2 4.5c-2.7 6.2 0 11 3.6 15.8 0 .3.4.5.7.6 3 1.3 10-1.2 11.6-4l1-2c.8-2 1.6-3.3 4-2 1 .6 2.2.5 3.2.6l-3.6 10.2h-23c-3.6 0-7 0-9.6-3-1-1-2.7-1.4-4.3-2 0-.5.4-1.5.2-1.6-1.8-1-1-2-.2-3.4.3-.5-.2-1.5-.5-2.2-2.3-4.7-4.8-9.2-7-14-1-2.4-1.2-5.2-2-8.7-.8 1.5-1.6 2.3-1.4 3 .5 2.8 1.2 5.4 1.8 8 .8 3 1.7 6 .2 9.6l-1.5-3.3-3.5-7.3c-.3-.6-.4-1.3-.3-2 .7-4.8-.2-9.4-2-14-.3-1-.5-2.2-.2-3.3 1.2-4.8 3.2-9.4 6.6-13.3 2.4-2.7 4.2-5.5 5-9.3.7-4 2.7-8 6.4-10.7 1-.8 1.4-2.4 2.3-3.6.7-.8 1.5-1.6 2-2.7-37.8 12.3-66 35.8-84.4 71.4l1.5-3.7c10.8-25.3 26.6-46.7 49.6-62.2 17-11.4 35.5-18 55.7-20.6L290-.3h15.8zM326 243c1.3 2.2-.3 3-2.3 4-3 1.5-3.2 2-1.7 4.2-3.2.8-6.2-2-5.7-5.6.3-1.7.8-3.3 1.3-5 .7-2 1.8-4 .8-6.4-.3-1 .4-2.6 1-3.4 4.2-5 6-10.7 7-16.8.2-1 1-1.8 1.3-2.7.5-1.2 1-2.3 1.2-3.5l.4-7c0-1 .2-2 .6-3 .8-1.6 2-3.2.8-5-1.5-2.2-3-4.4-4.8-6.2-3-2.7-6-5-9.7-8H394c.2 1.2.6 2.5.5 3.7 0 1-.6 2-1 2.7l-3.7 6.7c-1.2 2-2.4 4.3-4 6.3-.4.6-1.7 1-2.6 1-4.7 0-8.4 1.8-10.8 6-4.7 8.2-11 14.7-19.8 18.5-.7.3-1.4 1.5-1.4 2.3 0 2-1 2.8-2.8 3.4-3.7 1.3-7.2 3-10.8 4.3h-.2c-3.7 0-4.8 3-6.6 5.3-1 1.7-3 2.8-4.8 4.3" fill="#FFFFFF"></path><path class="st0" d="M425 199.8c-16.3 40.8-60.3 82.4-121 85-65 2.6-112.6-34.2-133.7-86 27.5 49.4 70.3 76 127.5 76C355 275 398 248.3 425 200M348.8 124v11c0 .6 1.2 1.5 1.8 1.6 3 0 5.8.4 8.7 0 2.2-.5 4.5-1.5 6.4-2.8 2-1.5 2.2-4 1.3-6.3-.8-2.2-2.6-3.4-5-3.5-4.3-.2-8.5 0-13.2 0m3 40.8h-21.4c4.6-3.4 3.3-7.7 3.3-11.8v-31c0-3 .3-6.2-3-8.5l2-.4c10.6 0 21.2 0 31.8.2 2 0 4 .2 5.8.7 6 1.2 10.7 4.4 12 11 1.6 7-.6 12.5-6.3 16.8-1.4 1-3 1.8-4.8 3l13.8 20h-22s-.2-.3 0-.4c2.3-3.5 2.3-3.5 0-7-2-2.7-4-5.3-5.5-8-1.3-2.4-3-3.4-5.6-3h-3.2c0 5-.2 9.6 0 14.3.3 1.2 1.8 2.5 3 4M76.4 113c5 0 10 0 14.8.2.8 0 1.8 1 2.4 1.6l21 23.8c1 1.3 2.3 2.5 3.7 4 0-1 .3-1.5.3-2 0-7.4.2-14.6 0-22-.2-1.7-1.5-3.5-2.2-5.4h17c-4.6 4-2.8 9-3 13.7v37.8h-11c-.6 0-1.4-1-2-1.7L93 136.8c-.5-.7-1-1.3-2.2-2.5v20.3c0 3.5-.7 7.2 3.4 10H76.4v-.4c2.6-2.3 2.6-5.4 2.6-8.8v-33c0-3.2.6-6.6-3-8.7l.4-.4M.2 113.2H21c-4.8 4-3 8.8-3 13.3-.2 6.3 0 12.6 0 19 0 5.7 3.2 9 9 9.2h3.3c5.7-.3 9-3.4 9-9 0-9.2.2-18.4 0-27.5 0-1.6-1.5-3.2-2.3-5h20.8c-4.5 3.4-3 7.8-3 12-.2 6.8 0 13.7 0 20.6-.2 11.6-4.7 17-16.2 19-7.5 1.4-15 1.4-22.4-.5-9-2.3-13.2-7.7-13.3-17-.2-8.5-.2-17 0-25.4 0-3.2.4-6.5-3-8.6l.2-.2M448 128c-4-1.2-8-2.7-12.2-3.7-3.2-.8-6.5-1-9.8-1.4-.8-.2-1.7-.3-2.3 0-1.4 1-3.3 1.7-3.8 3-1 2 1 3.3 2.7 4 3.2 1.2 6.6 2 10 3.3 3.6 1.4 7.4 2.7 11 4.7 4.8 2.7 7.5 7 7 13-.3 6.2-3.4 10.7-9.2 13-8 3.3-16 2.7-24.2 1-2.2-.6-4.4-1-6.4-2-2.3-.8-3.8-.5-5 1.5l-2 2.3V148c.7.4 1.3.6 1.8 1 6.3 3.5 13 5.7 20.3 6.2 2 0 3.8 0 5.4-.5 1.3-.5 2.7-2 3-3.3 0-1-1.3-2.8-2.4-3.5-2-1.2-4.2-1.5-6.2-2.3-5-2-10.4-3.8-15.3-6.3-4-2-6-5.6-6.6-10-1-7.2 2-12 8.6-15 8.5-3.5 17-3 25.8-.7h.2c3.3 1.2 6.6 3 9.3-1.2V128zM310.6 151.4v13.4H262c4.8-3.8 3-8.7 3-13.2.3-9.4.2-18.8 0-28.2 0-3.5 1.2-7.3-2.3-10h47.8V127c-3-4.3-7.2-3-11-3-6.3-.2-12.6 0-19 0v9.8c5.5 0 11 .2 16.3 0 1.3-.2 2.5-1.7 4-2.7v15.7h-.5C298 144 295 144 292 144c-3.8.3-7.6 0-11.5 0v10.2H302c4.3 0 4.3 0 8.6-2.8M495 127.5l-8.5 18.5h17l-8.5-18.5m-12 37.2h-18.4l1-2.3 19.7-41c1.2-2.5 3.2-5 0-8.3H502c.6 0 1.3.7 1.6 1.2L528 164c.2 0 0 .3.2.7h-21l.6-1c2.2-3 2.3-4.4 0-7.3-.3-.6-1.5-1-2.3-1-7 0-13.8.2-20.7 0-2.2 0-2.7 1.3-3.3 2.8-.6 1.4-2 2.8 0 4.3l1.5 2.2M189.7 113.2h20.7v.6c-2.6 2-2 4.4-.8 7 3.4 7.3 6.5 14.7 9.8 22l1.2 2.4 1.7-3.7 10-21.8c1-2 1.3-3.8-.6-5.3-.3-.2-.5-.6-1-1.2h17.8l-1 2.7c-7.4 15.5-14.8 31-22 46.6-.8 1.7-1.7 2.4-3.6 2.3-2.8-.3-6 .6-8-.7-2-1.2-2.6-4.4-3.7-6.8L191 116.3l-1.3-3M561.2 154.2h18.2c3.7 0 7.6.8 10.5-3.4v14h-46.4v-.4c2.7-2.4 2.6-5.6 2.5-9v-32.7c0-3.3.8-6.7-3.2-9.4h21.4c-4.7 4-2.7 9-3 13.5v27.5zM176.2 113.3c-4 3-3.2 7-3.3 10.5v29.7c0 4-1.2 8 3.3 11.3h-22c4.7-3.5 3-8.2 3.2-12.4V123c0-5.4 0-5.4-2.6-9.6H176zM589.4 133.7c5.2 0 9.5-4 9.5-9.3 0-5.2-4-9.5-9.3-9.6-5.2 0-9.5 4-9.5 9.3 0 5.4 4 9.6 9.2 9.7m10.4-9.5c0 5.7-4.5 10.3-10 10.4-5.8 0-10.5-4.6-10.5-10.4 0-5.6 4.6-10.2 10.3-10.2 5.6 0 10.2 4.5 10.2 10.2M320.6 93c-1.6 1-6.2.5-7.8-1-.7-.5-1.7-1-2.6-1.3l-3.2-1.4-5.3-2.7c1-1 5-1 6.2.7 1 1.6 2.4 2 4.3 2 .7-.2 1.4.3 2 .6l6.3 3M332.6 96.7c-2.4.6-5 1-7.7 1.7l-1.8-1.2c0-.6.3-1.2.2-1.7-.3-2 1-2.4 2.5-2 2.2.7 4.5 1.7 6.7 2.6v.7" fill="#FFFFFF"></path><path class="st0" d="M593.6 120.8c-4.3-1.3-6-1-7.4 1-1 1.8-1 3.6.3 5.3 1.5 2 3.2 2 7 .7-1.2 1.7-3 2.4-5 1.8-2.4-.7-3.7-2.4-4-5 0-2.3 1-4.2 3.4-5 2-1 3.8-.7 5.6 1.3" fill="#FFFFFF"></path></svg>