<?xml version="1.0" encoding="UTF-8"?><svg id="Layer_1" xmlns="http://www.w3.org/2000/svg" viewBox="0 0 673.56 292.34"><defs><style>.cls-1{fill:#fff;}</style></defs><path class="cls-1" d="M128.56,292.34c-2.01-.23-4.03-.42-6.03-.7-20.09-2.84-34.64-13.32-42.64-32-13.81-32.27-27.36-64.66-40.81-97.08-11.73-28.26-23.16-56.64-34.78-84.94-11.1-27.03-.05-57.39,25.9-70.94C51.82-4.6,77.37-1.41,95.2,14.81c6.51,5.92,10.95,13.2,14.34,21.27,13.03,31.09,26.31,62.07,39.2,93.22,12.07,29.15,24.14,58.31,35.5,87.74,8.12,21.02,3.69,40.28-11.47,56.81-9.99,10.9-22.77,16.58-37.45,18.05-1.45,.15-2.91,.29-4.36,.44h-2.4Z"/><path class="cls-1" d="M278.27,292.34c-2.01-.23-4.03-.42-6.03-.7-20.19-2.9-34.76-13.5-42.68-32.31-21.19-50.37-42.12-100.85-63.11-151.31-4.2-10.09-8.15-20.28-12.34-30.38-11.51-27.7,.63-57.64,25.97-71,21.31-11.24,47.41-7.97,64.99,8.27,6.43,5.94,10.89,13.16,14.26,21.19,13,31.01,26.23,61.93,39.12,92.98,11.94,28.77,23.63,57.65,35.28,86.54,10.96,27.19-1.18,56.54-26.3,69.72-8.16,4.28-16.88,6.5-26.09,6.8-.3,0-.61,.13-.91,.19h-2.16Z"/><path class="cls-1" d="M299.83,56.36c0-26.73,18.7-49.68,44.94-55.15,25.64-5.34,51.77,7.74,62.86,31.48,7.69,16.45,15.13,33.04,20.6,50.36,6.7,21.2,2.1,40.24-13.31,56.26-11.73,12.19-26.53,17.7-43.34,17.22-14-.4-26.35-5.36-36.47-15.28-5.66-5.55-9.78-12.17-13.04-19.36-6.73-14.83-12.89-29.89-18.6-45.13-2.44-6.5-3.64-13.33-3.64-20.4Z"/><path class="cls-1" d="M498.33,96.51v-30.98c-.08-.01-.17-.02-.25-.04-3.29,10.35-6.58,20.71-9.89,31.11-1.66,0-3.26-.04-4.85,.02-.9,.03-.9-.65-1.07-1.17-2.18-6.84-4.35-13.68-6.52-20.52-.88-2.77-1.76-5.55-2.65-8.32-.1-.32-.24-.62-.59-.89v30.81h-5.2V59.72c2.76,0,5.48-.03,8.19,.04,.28,0,.69,.56,.8,.93,1.83,5.86,3.63,11.73,5.43,17.6,1.11,3.62,2.23,7.24,3.34,10.86,.08,.26,.18,.51,.37,1.02,3.16-10.27,6.24-20.3,9.35-30.4h8.69v36.72h-5.16Z"/><path class="cls-1" d="M470.87,41.62c2.21-10.01,4.42-20.01,6.66-30.14,1.91,0,3.78-.03,5.64,.04,.26,.01,.63,.52,.71,.85,1.38,5.74,2.73,11.48,4.08,17.23,.9,3.81,1.79,7.61,2.68,11.42,.06,.26,.17,.52,.35,1.02,.94-4.25,1.83-8.25,2.72-12.26,1.28-5.77,2.57-11.53,3.8-17.3,.17-.79,.47-1.05,1.25-1.02,1.43,.06,2.87,.02,4.4,.02-.06,.44-.09,.78-.17,1.11-2.87,11.5-5.75,22.99-8.6,34.49-.23,.91-.55,1.36-1.59,1.27-1.35-.11-2.72-.08-4.08,0-.85,.04-1.15-.27-1.34-1.09-2.1-9.06-4.25-18.1-6.39-27.15-.1-.43-.21-.85-.4-1.58-.18,.53-.29,.79-.36,1.06-2.14,9.21-4.29,18.42-6.37,27.64-.21,.91-.57,1.15-1.43,1.11-1.36-.06-2.72-.07-4.08,0-.88,.05-1.24-.25-1.45-1.12-1.91-7.66-3.87-15.32-5.82-22.97-.99-3.9-1.99-7.81-2.98-11.71-.08-.3-.12-.62-.2-1h5.71c2.31,10.01,4.63,20.04,6.95,30.08,.09,0,.19,0,.28,0Z"/><path class="cls-1" d="M575.56,11.48c2.42,0,4.73-.04,7.04,.04,.37,.01,.84,.51,1.06,.9,4.01,7.4,8,14.82,11.99,22.23,1.15,2.14,2.3,4.29,3.45,6.43,.2,.37,.44,.73,.84,1.4V11.57h5.25V48.33c-1.54,0-3.1-.16-4.61,.04-2.25,.29-3.4-.57-4.46-2.6-4.72-9.1-9.66-18.09-14.53-27.12-.18-.34-.38-.68-.82-.99v30.6h-5.21V11.48Z"/><path class="cls-1" d="M568.24,48.32c-1.97,0-3.68,.05-5.39-.04-.34-.02-.76-.5-.95-.87-2.36-4.53-4.71-9.06-7.02-13.62-.35-.69-.71-.98-1.53-.96-2.71,.07-5.42,.03-8.27,.03v15.4h-5.19V11.62c.14-.04,.28-.13,.43-.13,5.55,.08,11.11,.08,16.66,.31,2.87,.12,5.63,.98,7.66,3.22,4.78,5.26,2.53,14.3-4.11,16.71-.22,.08-.45,.17-.8,.3,1.41,2.69,2.8,5.35,4.2,8.02,1.4,2.68,2.8,5.37,4.32,8.27Zm-23.12-20.07c3.67,0,7.22,.1,10.76-.04,1.9-.07,3.69-.71,4.84-2.45,2.42-3.67,.48-8.82-3.84-9.39-3.81-.5-7.71-.33-11.57-.45-.06,0-.12,.1-.19,.16v12.18Z"/><path class="cls-1" d="M645.22,11.5c4.46,0,8.81-.07,13.16,.03,2.06,.05,4.17,.21,6.17,.66,5.41,1.21,7.94,4.64,7.76,10.16-.18,5.4-1.89,7.71-7.26,9.69,2.8,5.36,5.6,10.71,8.51,16.28-1.97,0-3.75,.04-5.53-.04-.29-.01-.65-.53-.83-.88-2.32-4.46-4.64-8.92-6.89-13.41-.44-.88-.93-1.18-1.9-1.15-2.63,.07-5.26,.03-7.98,.03v15.38h-5.21V11.5Zm5.24,17.09c4.07-.19,8.1-.18,12.07-.65,2.92-.34,4.35-2.49,4.38-5.53,.04-3.36-1.25-5.56-4.28-5.97-4-.55-8.06-.56-12.17-.8v12.95Z"/><path class="cls-1" d="M546.77,85.15h5.05c.07,.11,.16,.2,.18,.31,.97,4.37,3.78,6.7,8.13,7.25,2.16,.27,4.31,.18,6.38-.58,2.56-.94,4.08-2.88,4.18-5.31,.09-2.28-1.19-4.37-3.8-5.25-2.97-1.01-6.07-1.64-9.12-2.42-2.62-.67-5.11-1.56-7.09-3.52-3.99-3.97-3.57-10.23,.94-13.63,5.14-3.87,14.14-3.93,19.3-.13,2.36,1.74,4.16,4.7,4.34,7.33-1.51,0-3.01,.02-4.51-.02-.2,0-.5-.25-.58-.45-1.25-3.13-3.75-4.57-6.89-5.05-2.32-.36-4.63-.21-6.8,.84-1.79,.87-3.1,2.13-3.14,4.28-.04,2.09,.91,3.74,2.82,4.46,2.3,.87,4.73,1.39,7.09,2.08,2.18,.63,4.44,1.09,6.52,1.97,3.65,1.55,6.12,4.13,6.28,8.39,.16,4.55-1.96,7.8-5.91,9.72-5.32,2.58-10.83,2.62-16.2,.11-4.29-2-6.47-5.63-7.19-10.36Z"/><path class="cls-1" d="M619.29,27.11h18.51v4.52h-18.51v12.2h19.74v4.41h-25.05V11.57h25.05v4.43h-19.74v11.11Z"/><path class="cls-1" d="M536.16,59.78h5.21c.03,.25,.06,.44,.06,.63-.02,7.47-.02,14.94-.1,22.41-.02,1.58-.27,3.19-.6,4.74-1.11,5.2-4.34,8.32-9.56,9.29-3.25,.61-6.53,.59-9.77-.05-5.23-1.03-8.16-4.03-9.14-9.32-.3-1.6-.5-3.25-.51-4.88-.05-7.35-.02-14.7-.02-22.05,0-.23,.02-.46,.04-.76h5.24v1.22c0,7.19-.04,14.38,.03,21.57,.01,1.54,.27,3.1,.64,4.6,.71,2.86,2.6,4.59,5.5,5.2,2.34,.49,4.69,.5,7-.11,3.27-.86,5.31-3.61,5.77-7.73,.14-1.23,.21-2.47,.21-3.7,.02-6.55,0-13.1,0-19.66v-1.4Z"/><path class="cls-1" d="M535.54,48.32c-1.86,0-3.53,.04-5.2-.04-.29-.01-.67-.49-.8-.83-.79-2.05-1.54-4.11-2.25-6.19-.25-.73-.63-.95-1.39-.94-4.96,.04-9.91,.04-14.87,0-.78,0-1.1,.26-1.34,.99-.69,2.08-1.51,4.12-2.2,6.2-.22,.66-.55,.86-1.21,.84-1.43-.04-2.85-.01-4.46-.01,.49-1.35,.92-2.53,1.36-3.71,3.96-10.65,7.95-21.29,11.87-31.96,.36-.98,.84-1.26,1.81-1.21,1.31,.08,2.64-.03,3.95,.05,.36,.02,.89,.37,1.01,.69,4.56,11.96,9.08,23.93,13.7,36.13Zm-10.25-12.44c-2.27-6.29-4.51-12.5-6.87-19.03-2.33,6.56-4.53,12.74-6.76,19.03h13.63Z"/><path class="cls-1" d="M627.24,71.46h-5.29c-.07-.18-.18-.38-.24-.6-1.31-4.2-4.21-6.65-8.51-7.24-4.51-.62-8.3,.79-10.92,4.68-3.54,5.27-3.43,14.75,.24,19.93,2.61,3.69,6.32,4.99,10.69,4.49,4.36-.5,7.22-2.94,8.63-7.08,.21-.61,.44-.92,1.15-.89,1.35,.06,2.7,.02,4.22,.02-.16,.67-.26,1.2-.41,1.72-1.77,5.94-6.68,9.94-13.01,10.61-5.24,.55-10.05-.39-13.98-4.16-3.1-2.98-4.61-6.76-5.15-10.94-.69-5.26-.24-10.37,2.48-15.07,5.98-10.35,22.02-10.67,27.94-.52,.87,1.49,1.38,3.19,2.16,5.04Z"/><path class="cls-1" d="M582.32,59.78h5v36.77h-5V59.78Z"/></svg>